<svg width="375" height="194" viewBox="0 0 375 194" fill="none" xmlns="http://www.w3.org/2000/svg">
<g clip-path="url(#clip0_850_3921)">
<path d="M26.539 15.4512C25.851 12.7768 23.1253 11.1665 20.4509 11.8544C17.7766 12.5424 16.1663 15.2681 16.8543 17.9424C17.5422 20.6168 20.2679 22.2271 22.9422 21.5391C25.6165 20.8512 27.2269 18.1255 26.539 15.4512Z" fill="#CAFFBF" stroke="#F8F9FA"/>
<path d="M285.539 162.451C284.85 159.774 282.128 158.166 279.451 158.854C276.774 159.543 275.166 162.266 275.854 164.942C276.543 167.619 279.265 169.228 281.942 168.539C284.618 167.851 286.222 165.107 285.539 162.451Z" fill="#CAFFBF" stroke="#F8F9FA"/>
<path d="M174.539 69.4511C173.85 66.7743 171.128 65.1658 168.451 65.8544C165.774 66.543 164.166 69.2656 164.854 71.9424C165.543 74.6192 168.265 76.2277 170.942 75.5391C173.618 74.8509 175.222 72.1068 174.539 69.4511Z" fill="#CAFFBF" stroke="#F8F9FA"/>
<path d="M381.133 -16.8302C401.839 -2.20973 406.772 26.4279 392.152 47.1336C377.531 67.8394 348.894 72.7725 328.188 58.152C307.482 43.5315 302.549 14.8939 317.17 -5.81182C331.79 -26.5176 360.428 -31.4507 381.133 -16.8302Z" fill="#CAFFBF" stroke="#F8F9FA"/>
<path d="M334.252 30C332.356 30 330.815 31.5103 330.815 33.3678C330.815 35.0691 332.099 36.4579 333.774 36.6836V126.86C331.648 100.334 322.398 79.5281 306.193 64.9023C277.132 38.6713 235.269 41.7093 234.843 41.744L234.923 42.6815C235.339 42.6468 276.804 39.6435 305.546 65.5967C323.957 82.2189 333.296 106.948 333.296 139.099H333.774H334.252H334.731V36.6836C336.397 36.4493 337.69 35.0604 337.69 33.3678C337.69 31.5016 336.148 30 334.252 30Z" fill="#F8F9FA"/>
<path d="M225 46.8827H235.366V36.7271H225V46.8827ZM225.957 37.6732H234.4V45.9452H225.957V37.6732Z" fill="#F8F9FA"/>
<path d="M328.591 138.622V148.777H338.958V138.622H328.591ZM337.992 147.84H329.548V139.568H337.992V147.84Z" fill="#F8F9FA"/>
<path d="M90.1971 68.3443L71.7423 3.31258L124.796 43.9133C124.199 43.8796 123.562 43.8985 122.892 43.9651C121.301 44.1233 119.491 44.5544 117.544 45.2287C113.651 46.5772 109.169 48.913 104.72 52.0578C100.267 55.2016 96.5484 58.6624 93.9431 61.9083C92.6404 63.5312 91.6094 65.1086 90.9049 66.5734C90.6132 67.1799 90.375 67.7721 90.1971 68.3443Z" fill="#CAFFBF" stroke="#F8F9FA"/>
<path d="M104.766 52.0985C97.1509 57.4786 91.421 64.0059 90.1529 68.7385C89.9717 69.4146 89.8844 70.0425 89.8909 70.6221C89.8994 71.4957 90.1191 72.2518 90.538 72.8685C93.2857 76.9343 103.848 74.1694 114.579 66.5878C122.194 61.2077 127.926 54.6718 129.192 49.9477C129.646 48.2532 129.513 46.8693 128.807 45.8178C128.388 45.201 127.77 44.7236 126.973 44.4093C122.701 42.7141 113.569 45.8718 104.766 52.0985ZM126.643 45.2381C127.277 45.4904 127.762 45.8589 128.085 46.3307C128.645 47.1595 128.734 48.3024 128.351 49.7316C127.136 54.2674 121.536 60.6096 114.077 65.8757C104.09 72.9317 93.6409 75.9105 91.2466 72.3704C90.9237 71.8986 90.7594 71.3043 90.7576 70.6067C90.7557 70.1108 90.8331 69.5537 90.9913 68.9632C92.2067 64.4274 97.8038 58.0938 105.254 52.8255C113.702 46.8521 122.697 43.6671 126.643 45.2381Z" fill="#F8F9FA"/>
<path d="M152.685 122.038C160.131 108.71 177.201 103.607 191.004 110.697C204.806 117.788 210.228 134.44 203.264 148.016L197.357 144.983C202.612 134.588 198.435 121.885 187.899 116.474C177.363 111.064 164.328 114.93 158.592 125.071L152.685 122.038Z" fill="#CAFFBF" stroke="#F8F9FA"/>
<path d="M152.685 122.038C160.131 108.71 177.201 103.607 191.004 110.697C204.806 117.788 210.228 134.44 203.264 148.016L197.357 144.983C202.612 134.588 198.435 121.885 187.899 116.474C177.363 111.064 164.328 114.93 158.592 125.071L152.685 122.038Z" fill="#CAFFBF" stroke="#F8F9FA"/>
<path d="M39.9204 90.4771H19.3032V110.675H39.9204V90.4771Z" fill="#CAFFBF" stroke="#F8F9FA" stroke-miterlimit="10"/>
<path d="M25.9037 85H10V100.581H25.9037V85Z" fill="#F8F9FA"/>
<path d="M129.285 165.812H112.965V181.801H129.285V165.812Z" fill="#CAFFBF"/>
<path d="M121.435 173.468C121.426 165.552 121.426 158.495 121.471 158.095L121.152 158.052L120.833 158C120.78 158.33 120.771 165.829 120.788 173.468C113.63 173.476 106.524 173.502 105 173.511V174.153C109.324 174.136 115.224 174.119 120.788 174.11C120.797 181.132 120.824 188.12 120.833 189.613H121.488C121.471 185.368 121.453 179.57 121.444 174.11C129.533 174.101 136.763 174.101 137.162 174.145L137.206 173.832L137.259 173.52C136.923 173.459 129.25 173.459 121.435 173.468Z" fill="#F8F9FA"/>
</g>
<defs>
<clipPath id="clip0_850_3921">
<rect width="375" height="194" fill="white"/>
</clipPath>
</defs>
</svg>
